<svg width="44" height="44" viewBox="0 0 44 44" fill="none" xmlns="http://www.w3.org/2000/svg">
<path d="M8.94487 18.1904L3.49231 23.6435C1.25622 25.8798 0 28.9128 0 32.0754C0 35.238 1.25622 38.2711 3.49231 40.5074C5.7284 42.7437 8.76119 44 11.9235 44C15.0858 44 18.1186 42.7437 20.3547 40.5074L27.6195 33.238C28.9679 31.8892 29.9731 30.2367 30.5508 28.419C31.1284 26.6014 31.2617 24.6717 30.9393 22.7919C30.617 20.9121 29.8484 19.137 28.6982 17.6157C27.5479 16.0944 26.0496 14.8713 24.3289 14.049L22 16.378C21.7636 16.6149 21.5579 16.8806 21.388 17.169C22.7174 17.5512 23.9241 18.2738 24.8888 19.2654C25.8534 20.2569 26.5426 21.4831 26.8882 22.8227C27.2338 24.1622 27.2239 25.5688 26.8593 26.9033C26.4948 28.2379 25.7883 29.4542 24.8097 30.432L17.5489 37.6974C16.0575 39.1889 14.0347 40.0269 11.9255 40.0269C9.81629 40.0269 7.79348 39.1889 6.30205 37.6974C4.81062 36.2058 3.97274 34.1828 3.97274 32.0734C3.97274 29.964 4.81062 27.941 6.30205 26.4495L9.45356 23.3017C9.00891 21.6352 8.83712 19.9078 8.94487 18.1864V18.1904Z" fill="#C8C8C8"/>
<path d="M16.3806 10.7581C15.0322 12.1068 14.0269 13.7593 13.4493 15.577C12.8716 17.3946 12.7384 19.3244 13.0607 21.2042C13.3831 23.084 14.1516 24.859 15.3019 26.3803C16.4521 27.9016 17.9505 29.1247 19.6712 29.9471L22.7512 26.8628C21.4037 26.5014 20.1751 25.7916 19.1889 24.8048C18.2026 23.8181 17.4934 22.5891 17.1325 21.2414C16.7717 19.8936 16.7719 18.4747 17.1331 17.127C17.4943 15.7794 18.2038 14.5506 19.1903 13.5641L26.4511 6.29864C27.9425 4.80708 29.9654 3.96913 32.0746 3.96913C34.1838 3.96913 36.2066 4.80708 37.698 6.29864C39.1894 7.79021 40.0273 9.8132 40.0273 11.9226C40.0273 14.032 39.1894 16.055 37.698 17.5465L34.5465 20.6944C34.9916 22.3637 35.1625 24.0926 35.0552 25.8096L40.5077 20.3565C42.7438 18.1202 44 15.0872 44 11.9246C44 8.76199 42.7438 5.72892 40.5077 3.49263C38.2716 1.25634 35.2389 0 32.0765 0C28.9142 0 25.8814 1.25634 23.6454 3.49263L16.3806 10.7581Z" fill="#C8C8C8"/>
</svg>
