<svg width="44" height="44" viewBox="0 0 44 44" fill="none" xmlns="http://www.w3.org/2000/svg">
<path d="M37.5718 6.39657C35.5455 4.36068 33.1324 2.74662 30.4732 1.64844C27.814 0.550266 24.9618 -0.0100711 22.0829 8.63059e-05C10.0193 8.63059e-05 0.187845 9.78456 0.176796 21.7965C0.176796 25.6438 1.18785 29.3865 3.09668 32.7002L0 44L11.6133 40.9695C14.826 42.71 18.4252 43.6223 22.0829 43.6232H22.0939C34.1602 43.6232 43.9889 33.8387 44 21.8158C44.0028 18.9504 43.4359 16.1128 42.3322 13.4665C41.2285 10.8201 39.6097 8.41735 37.569 6.39657H37.5718ZM22.0829 39.9327C18.8204 39.9338 15.618 39.0598 12.8122 37.4027L12.1492 37.0067L5.25967 38.8052L7.09945 32.1145L6.66851 31.4242C4.84477 28.5376 3.88024 25.1956 3.88674 21.7855C3.88674 11.814 12.0552 3.67957 22.0939 3.67957C24.4855 3.6753 26.8542 4.14233 29.0636 5.05372C31.273 5.96512 33.2793 7.30285 34.9668 8.98981C36.6603 10.6702 38.0028 12.6677 38.9169 14.8672C39.831 17.0666 40.2986 19.4245 40.2928 21.8048C40.2818 31.812 32.1133 39.9327 22.0829 39.9327ZM32.0691 26.3643C31.5249 26.092 28.837 24.7748 28.3315 24.5878C27.8287 24.409 27.4613 24.3155 27.1022 24.86C26.7348 25.4018 25.6851 26.6365 25.3702 26.9913C25.0552 27.357 24.7293 27.3983 24.1823 27.1288C23.6381 26.8538 21.8729 26.2818 19.7845 24.42C18.1547 22.9763 17.0635 21.1888 16.7376 20.647C16.4226 20.1025 16.7072 19.811 16.9807 19.5388C17.221 19.2968 17.5249 18.9008 17.7983 18.5873C18.0746 18.2738 18.1657 18.0428 18.3453 17.6798C18.5249 17.3113 18.4392 16.9978 18.3039 16.7255C18.1657 16.4533 17.0746 13.7665 16.6133 12.683C16.1713 11.6133 15.721 11.7618 15.384 11.748C15.0691 11.7288 14.7017 11.7288 14.3343 11.7288C14.0568 11.7357 13.7838 11.7995 13.5323 11.9164C13.2808 12.0333 13.0563 12.2007 12.8729 12.408C12.3702 12.9525 10.9641 14.2698 10.9641 16.9565C10.9641 19.6433 12.9254 22.2255 13.2017 22.5913C13.4724 22.957 17.0525 28.4542 22.547 30.8192C23.8453 31.383 24.8674 31.7157 25.6657 31.9687C26.9779 32.3867 28.163 32.3235 29.1077 32.1887C30.1574 32.0292 32.3425 30.8687 32.8039 29.5955C33.2569 28.3195 33.2569 27.2305 33.1188 27.0023C32.9834 26.7713 32.616 26.6365 32.0691 26.3643Z" fill="#C8C8C8"/>
</svg>
